<svg preserveAspectRatio="none" width="100%" height="100%" overflow="visible" style="display: block;" viewBox="0 0 53.0465 13.6167" fill="none" xmlns="http://www.w3.org/2000/svg">
<g id="colours / red">
<path id="Mask" fill-rule="evenodd" clip-rule="evenodd" d="M0 6.86974C0 4.63984 1.59344 3.26916 4.14131 3.26916H6.7793V0H10.0809V10.2698H4.12902C1.59344 10.2698 0 8.95235 0 6.86974ZM3.48999 6.75517C3.48999 7.61031 4.01022 8.05629 5.0097 8.05629H6.77929V5.43769H5.02609C4.0266 5.43769 3.48999 5.88776 3.48999 6.75517ZM31.4264 6.74699C31.4264 8.9769 29.833 10.3476 27.2851 10.3476H24.6471V13.6167H21.3455V3.3469H27.2974C29.833 3.3469 31.4264 4.66439 31.4264 6.74699ZM27.9324 6.86157C27.9324 6.00643 27.4122 5.56045 26.4127 5.56045H24.6472V8.17906H26.4004C27.3999 8.17906 27.9324 7.72898 27.9324 6.86157ZM53.0465 6.74699C53.0465 8.9769 51.4531 10.3476 48.9052 10.3476H46.2672V13.6167H42.9656V3.3469H48.9175C51.4531 3.3469 53.0465 4.66439 53.0465 6.74699ZM49.5524 6.86157C49.5524 6.00643 49.0322 5.56045 48.0327 5.56045H46.2672V8.17906H48.0204C49.0199 8.17906 49.5524 7.72898 49.5524 6.86157ZM32.3891 6.78383C32.3891 4.29616 34.388 2.9664 37.1407 2.9664C39.8934 2.9664 41.8924 4.29616 41.8924 6.78383C41.8924 9.2715 39.8934 10.634 37.1407 10.634C34.388 10.6299 32.3891 9.2715 32.3891 6.78383ZM38.6727 6.78381C38.6727 5.56861 38.0624 4.95897 37.1366 4.95897C36.2109 4.95897 35.6005 5.56861 35.6005 6.78381C35.6005 7.98264 36.2109 8.63729 37.1366 8.63729C38.0665 8.6332 38.6727 7.98264 38.6727 6.78381ZM20.2682 6.95567C20.2682 4.46799 18.6584 2.96229 15.7501 2.96229C12.9564 2.96229 11.1582 4.46799 11.1582 6.82473C11.1582 9.21012 12.94 10.6299 15.9098 10.6299C17.7777 10.6299 19.2851 9.93433 20.0798 8.80505L17.7122 7.94582C17.3025 8.39181 16.684 8.6373 16.0327 8.6373C15.0537 8.6373 14.3737 8.24451 14.1976 7.57758C14.1853 7.53258 14.1771 7.49166 14.1689 7.44256V7.44256V7.44256H14.1853H20.2682V6.95567ZM14.169 5.90004C14.2468 5.08173 14.808 4.57847 15.7829 4.57847C16.7578 4.57847 17.319 5.11037 17.319 5.90004H14.169Z" fill="var(--fill-0, #E81F00)"/>
<mask id="mask0_13662_878015" style="mask-type:luminance" maskUnits="userSpaceOnUse" x="0" y="0" width="54" height="14">
<path id="Mask_2" fill-rule="evenodd" clip-rule="evenodd" d="M0 6.86974C0 4.63984 1.59344 3.26916 4.14131 3.26916H6.7793V0H10.0809V10.2698H4.12902C1.59344 10.2698 0 8.95235 0 6.86974ZM3.48999 6.75517C3.48999 7.61031 4.01022 8.05629 5.0097 8.05629H6.77929V5.43769H5.02609C4.0266 5.43769 3.48999 5.88776 3.48999 6.75517ZM31.4264 6.74699C31.4264 8.9769 29.833 10.3476 27.2851 10.3476H24.6471V13.6167H21.3455V3.3469H27.2974C29.833 3.3469 31.4264 4.66439 31.4264 6.74699ZM27.9324 6.86157C27.9324 6.00643 27.4122 5.56045 26.4127 5.56045H24.6472V8.17906H26.4004C27.3999 8.17906 27.9324 7.72898 27.9324 6.86157ZM53.0465 6.74699C53.0465 8.9769 51.4531 10.3476 48.9052 10.3476H46.2672V13.6167H42.9656V3.3469H48.9175C51.4531 3.3469 53.0465 4.66439 53.0465 6.74699ZM49.5524 6.86157C49.5524 6.00643 49.0322 5.56045 48.0327 5.56045H46.2672V8.17906H48.0204C49.0199 8.17906 49.5524 7.72898 49.5524 6.86157ZM32.3891 6.78383C32.3891 4.29616 34.388 2.9664 37.1407 2.9664C39.8934 2.9664 41.8924 4.29616 41.8924 6.78383C41.8924 9.2715 39.8934 10.634 37.1407 10.634C34.388 10.6299 32.3891 9.2715 32.3891 6.78383ZM38.6727 6.78381C38.6727 5.56861 38.0624 4.95897 37.1366 4.95897C36.2109 4.95897 35.6005 5.56861 35.6005 6.78381C35.6005 7.98264 36.2109 8.63729 37.1366 8.63729C38.0665 8.6332 38.6727 7.98264 38.6727 6.78381ZM20.2682 6.95567C20.2682 4.46799 18.6584 2.96229 15.7501 2.96229C12.9564 2.96229 11.1582 4.46799 11.1582 6.82473C11.1582 9.21012 12.94 10.6299 15.9098 10.6299C17.7777 10.6299 19.2851 9.93433 20.0798 8.80505L17.7122 7.94582C17.3025 8.39181 16.684 8.6373 16.0327 8.6373C15.0537 8.6373 14.3737 8.24451 14.1976 7.57758C14.1853 7.53258 14.1771 7.49166 14.1689 7.44256V7.44256V7.44256H14.1853H20.2682V6.95567ZM14.169 5.90004C14.2468 5.08173 14.808 4.57847 15.7829 4.57847C16.7578 4.57847 17.319 5.11037 17.319 5.90004H14.169Z" fill="var(--fill-0, white)"/>
</mask>
<g mask="url(#mask0_13662_878015)">
<g id="colours / white #FFFFFF">
<path id="#FFFFFF" fill-rule="evenodd" clip-rule="evenodd" d="M-11.6667 -31.0329H64.1667V45.0855H-11.6667V-31.0329Z" fill="var(--fill-0, white)"/>
</g>
</g>
</g>
</svg>
