<svg preserveAspectRatio="none" width="100%" height="100%" overflow="visible" style="display: block;" viewBox="0 0 283.16 73.22" fill="none" xmlns="http://www.w3.org/2000/svg">
<path id="Shape" fill-rule="evenodd" clip-rule="evenodd" d="M0 36.94C0 24.9494 8.50574 17.579 22.1062 17.579H36.1876V0H53.8114V55.223H22.0406C8.50574 55.223 0 48.1386 0 36.94ZM18.6296 36.324C18.6296 40.9223 21.4066 43.3204 26.7418 43.3204H36.1877V29.2396H26.8292C21.494 29.2396 18.6296 31.6598 18.6296 36.324ZM167.753 36.28C167.753 48.2707 159.248 55.6411 145.647 55.6411H131.566V73.22H113.942V17.997H145.713C159.248 17.997 167.753 25.0814 167.753 36.28ZM149.102 36.896C149.102 32.2977 146.325 29.8996 140.99 29.8996H131.565V43.9804H140.924C146.259 43.9804 149.102 41.5602 149.102 36.896ZM283.16 36.28C283.16 48.2707 274.654 55.6411 261.054 55.6411H246.972V73.22H229.349V17.997H261.119C274.654 17.997 283.16 25.0814 283.16 36.28ZM264.509 36.896C264.509 32.2977 261.732 29.8996 256.397 29.8996H246.972V43.9804H256.331C261.666 43.9804 264.509 41.5602 264.509 36.896ZM172.892 36.4779C172.892 23.1012 183.562 15.9508 198.256 15.9508C212.95 15.9508 223.62 23.1012 223.62 36.4779C223.62 49.8547 212.95 57.1811 198.256 57.1811C183.562 57.1591 172.892 49.8547 172.892 36.4779ZM206.434 36.4781C206.434 29.9437 203.176 26.6655 198.234 26.6655C193.292 26.6655 190.034 29.9437 190.034 36.4781C190.034 42.9244 193.292 46.4446 198.234 46.4446C203.198 46.4226 206.434 42.9244 206.434 36.4781ZM108.191 37.4021C108.191 24.0253 99.5982 15.9289 84.0736 15.9289C69.1612 15.9289 59.5622 24.0253 59.5622 36.698C59.5622 49.5247 69.0738 57.1591 84.9264 57.1591C94.8971 57.1591 102.944 53.4189 107.186 47.3466L94.5472 42.7263C92.3607 45.1245 89.059 46.4446 85.5823 46.4446C80.3564 46.4446 76.7267 44.3324 75.7865 40.7462C75.7209 40.5042 75.6772 40.2842 75.6335 40.0202V40.0202V40.0202H75.7209H108.191V37.4021ZM75.6331 31.7257C76.0486 27.3255 79.0442 24.6193 84.2482 24.6193C89.4522 24.6193 92.4478 27.4795 92.4478 31.7257H75.6331Z" fill="var(--fill-0, white)"/>
</svg>
